# xmcd CD database file
#
# Track frame offsets:
#	150
#	10558
#	19943
#	41789
#	56533
#	70151
#	86155
#	102559
#	116923
#	128842
#	142881
#	158019
#	171044
#	188861
#	208954
#
# Disc length: 3047 seconds
#
# Revision: 0
# Processed by: cddbd v1.5.2PL0 Copyright (c) Steve Scherf et al.
# Submitted via: CDex 1.70beta2
#
DISCID=d20be50f
DTITLE=Ball and Chain - Cdn. - Trouble All The Time
DYEAR=2003
DGENRE=Country
TTITLE0=You're Gonna Change(Or I'm Gonna Leave)
TTITLE1=Troble
TTITLE2=Golden Earrings
TTITLE3=Wondering
TTITLE4=Jongle a Moi
TTITLE5=Teh Memnory of Your Smile
TTITLE6=The Devil is An Angle
TTITLE7=You Win Again
TTITLE8=Freight Train Blues
TTITLE9=Valse de Boyou Teche
TTITLE10=Jackson
TTITLE11=I Just Don't Like This Kind of Livin'
TTITLE12=Don't Do It Darling
TTITLE13=Infinite Blue
TTITLE14=Happoy One Steo/Danse Carre
EXTD=YEAR: 2003
EXTT0=
EXTT1=
EXTT2=
EXTT3=
EXTT4=
EXTT5=
EXTT6=
EXTT7=
EXTT8=
EXTT9=
EXTT10=
EXTT11=
EXTT12=
EXTT13=
EXTT14=
PLAYORDER=
